# xmcd
#
# Track frame offsets: 
#        150
#        16739
#        31130
#        40359
#        49814
#        64686
#        78033
#        91900
#        102443
#        113209
#        124627
#        141479
#        154346
#        171175
#        186268
#
# Disc length: 2691 seconds
#
# Revision: 6
# Processed by: cddbd v1.5.2PL0 Copyright (c) Steve Scherf et al.
# Submitted via: ExactAudioCopy v0.99pb4
#
DISCID=c20a810f
DTITLE=Various Artist - Superstars of Country: Good Ol' Songs (2 of 2)
DYEAR=2005
DGENRE=Country
TTITLE0=Ronnie Milsap - Any Day Now
TTITLE1=Alabama - Love in the First Degree
TTITLE2=Charley Pride - Kiss an Angel Good Mornin'
TTITLE3=Dottie West - Country Sunshine
TTITLE4=Waylon Jennings - Luckenbach, Texas (Back to the Basics of Lov
TTITLE4=e)
TTITLE5=Dolly Parton - Here You Come Again
TTITLE6=Glen Campbell - Wichita Lineman
TTITLE7=Jerry Reed  - When You're Hot, You're Hot
TTITLE8=The Kendalls - Heaven's Just a Sin Away
TTITLE9=Waylon Jennings and Willie Nelson - Mammas, Don't Let Your Babie
TTITLE9=s Grow up to be Cowboys
TTITLE10=Ronnie Milsap - Smoky Mountain Rain
TTITLE11=Gary Stewart - She's Actin Single (I'm Drinkin' Doubles)
TTITLE12=Mary MacGregor - Torn Between Two Lovers
TTITLE13=Sylvia - Nobody
TTITLE14=John Denver - Thank God I'm a Country Boy
EXTD=
EXTT0=
EXTT1=
EXTT2=
EXTT3=
EXTT4=
EXTT5=
EXTT6=
EXTT7=
EXTT8=
EXTT9=
EXTT10=
EXTT11=
EXTT12=
EXTT13=
EXTT14=
PLAYORDER=
